<svg width="100" height="100" viewBox="0 0 100 100" fill="none" xmlns="http://www.w3.org/2000/svg">
<g id="vuesax/linear/emoji-happy">
<g id="emoji-happy">
<path id="Vector" d="M37.5 91.6667H62.5C83.3333 91.6667 91.6666 83.3334 91.6666 62.5V37.5C91.6666 16.6667 83.3333 8.33336 62.5 8.33336H37.5C16.6666 8.33336 8.33331 16.6667 8.33331 37.5V62.5C8.33331 83.3334 16.6666 91.6667 37.5 91.6667Z" stroke="black" stroke-width="1.5" stroke-linecap="round" stroke-linejoin="round"/>
<path id="Vector_2" d="M64.5833 40.625C68.0351 40.625 70.8333 37.8268 70.8333 34.375C70.8333 30.9232 68.0351 28.125 64.5833 28.125C61.1315 28.125 58.3333 30.9232 58.3333 34.375C58.3333 37.8268 61.1315 40.625 64.5833 40.625Z" stroke="black" stroke-width="1.5" stroke-miterlimit="10" stroke-linecap="round" stroke-linejoin="round"/>
<path id="Vector_3" d="M35.4167 40.625C38.8685 40.625 41.6667 37.8268 41.6667 34.375C41.6667 30.9232 38.8685 28.125 35.4167 28.125C31.9649 28.125 29.1667 30.9232 29.1667 34.375C29.1667 37.8268 31.9649 40.625 35.4167 40.625Z" stroke="black" stroke-width="1.5" stroke-miterlimit="10" stroke-linecap="round" stroke-linejoin="round"/>
<path id="Vector_4" d="M35 55.4167H65C67.0833 55.4167 68.75 57.0834 68.75 59.1667C68.75 69.5417 60.375 77.9167 50 77.9167C39.625 77.9167 31.25 69.5417 31.25 59.1667C31.25 57.0834 32.9167 55.4167 35 55.4167Z" stroke="black" stroke-width="1.5" stroke-miterlimit="10" stroke-linecap="round" stroke-linejoin="round"/>
</g>
</g>
</svg>
