<svg width="42" height="42" viewBox="0 0 42 42" fill="none" xmlns="http://www.w3.org/2000/svg">
<g id="Google Logo">
<rect width="40" height="40" fill="white"/>
<g id="logo googleg 48dp">
<path id="Shape" fill-rule="evenodd" clip-rule="evenodd" d="M41.0499 21.9214C41.0499 20.4743 40.9201 19.0828 40.6789 17.747H21.4581V25.6413H32.4414C31.9683 28.1923 30.5305 30.3537 28.369 31.8008V36.9214H34.9646C38.8236 33.3685 41.0499 28.1366 41.0499 21.9214Z" fill="#4285F4"/>
<path id="Shape_2" fill-rule="evenodd" clip-rule="evenodd" d="M21.4579 41.8655C26.9681 41.8655 31.5877 40.038 34.9644 36.9211L28.3688 31.8005C26.5414 33.025 24.2037 33.7486 21.4579 33.7486C16.1425 33.7486 11.6434 30.1586 10.0386 25.3349H3.22038V30.6224C6.57845 37.2922 13.4801 41.8655 21.4579 41.8655Z" fill="#34A853"/>
<path id="Shape_3" fill-rule="evenodd" clip-rule="evenodd" d="M10.0388 25.3354C9.63064 24.1109 9.39873 22.803 9.39873 21.4579C9.39873 20.1128 9.63064 18.8048 10.0388 17.5803V12.2928H3.22062C1.83843 15.0479 1.04993 18.1647 1.04993 21.4579C1.04993 24.751 1.83843 27.8679 3.22062 30.623L10.0388 25.3354Z" fill="#FBBC05"/>
<path id="Shape_4" fill-rule="evenodd" clip-rule="evenodd" d="M21.4579 9.16638C24.4542 9.16638 27.1443 10.1961 29.2593 12.2183L35.1128 6.3649C31.5785 3.07176 26.9588 1.0495 21.4579 1.0495C13.4801 1.0495 6.57845 5.62278 3.22038 12.2925L10.0386 17.5801C11.6434 12.7564 16.1425 9.16638 21.4579 9.16638Z" fill="#EA4335"/>
</g>
</g>
</svg>
